<svg width="1506" height="714" viewBox="0 0 1506 714" fill="none" xmlns="http://www.w3.org/2000/svg">
<path fill-rule="evenodd" clip-rule="evenodd" d="M1.00604 203.812C1.00604 91.612 91.906 0.712036 204.006 0.712036C316.206 0.712036 407.106 91.612 407.106 203.712C407.106 262.512 381.706 318.412 337.306 357.012C421.906 430.612 430.806 558.912 357.106 643.412C318.506 687.712 262.706 713.112 203.906 713.112H169.506C141.906 713.512 119.306 691.512 118.906 663.912C118.506 636.312 140.506 613.712 168.106 613.312C168.606 613.312 169.006 613.312 169.506 613.312H203.906C260.906 613.312 307.206 567.212 307.206 510.112C307.206 453.112 261.106 406.812 204.006 406.812C203.906 406.812 203.906 406.812 203.806 406.812H169.406C141.806 406.812 119.506 384.512 119.506 356.912C119.506 329.312 141.806 307.012 169.406 307.012H203.806C260.806 307.012 307.006 260.812 307.006 203.712C307.006 146.712 260.806 100.512 203.706 100.512C146.706 100.512 100.506 146.712 100.506 203.712V356.812C100.506 384.412 78.1061 406.712 50.6061 406.712C23.1061 406.712 0.706055 384.412 0.706055 356.812V203.812H1.00604Z" fill="#FE7456"/>
<path fill-rule="evenodd" clip-rule="evenodd" d="M1.00586 592.512C1.00586 619.912 23.2059 642.112 50.6059 642.112C78.0059 642.112 100.206 619.912 100.206 592.512C100.206 565.112 78.0059 542.912 50.6059 542.912C23.2059 542.912 1.00586 565.112 1.00586 592.512Z" fill="#FF6645"/>
<path d="M50.6059 523.512C77.9992 523.512 100.206 501.305 100.206 473.912C100.206 446.519 77.9992 424.312 50.6059 424.312C23.2126 424.312 1.00586 446.519 1.00586 473.912C1.00586 501.305 23.2126 523.512 50.6059 523.512Z" fill="#FF6645"/>
<path fill-rule="evenodd" clip-rule="evenodd" d="M1.00604 203.812C1.00604 91.612 91.906 0.712036 204.006 0.712036C316.206 0.712036 407.106 91.612 407.106 203.712C407.106 262.512 381.706 318.412 337.306 357.012C421.906 430.612 430.806 558.912 357.106 643.412C318.506 687.712 262.706 713.112 203.906 713.112H169.506C141.906 713.512 119.306 691.512 118.906 663.912C118.506 636.312 140.506 613.712 168.106 613.312C168.606 613.312 169.006 613.312 169.506 613.312H203.906C260.906 613.312 307.206 567.212 307.206 510.112C307.206 453.112 261.106 406.812 204.006 406.812C203.906 406.812 203.906 406.812 203.806 406.812H169.406C141.806 406.812 119.506 384.512 119.506 356.912C119.506 329.312 141.806 307.012 169.406 307.012H203.806C260.806 307.012 307.006 260.812 307.006 203.712C307.006 146.712 260.806 100.512 203.706 100.512C146.706 100.512 100.506 146.712 100.506 203.712V356.812C100.506 384.412 78.1061 406.712 50.6061 406.712C23.1061 406.712 0.706055 384.412 0.706055 356.812V203.812H1.00604Z" fill="#FE7456"/>
<path fill-rule="evenodd" clip-rule="evenodd" d="M169.406 613.912C141.806 613.912 119.406 636.412 119.506 664.012C119.506 691.612 141.906 713.912 169.406 713.912H203.806C315.906 713.912 409.506 622.812 406.706 510.412C402.706 349.812 260.806 306.912 203.806 306.912H169.406C141.806 306.912 119.406 329.412 119.506 357.012C119.506 384.612 141.906 406.912 169.406 406.912H203.806C260.906 406.912 307.306 453.212 307.306 510.412C307.306 567.612 261.006 613.912 203.806 613.912H169.406Z" fill="#FF6645"/>
<path d="M1396.91 559.512V499.212H1366.51C1362.41 499.412 1358.91 496.212 1358.71 492.112C1358.71 491.912 1358.71 491.612 1358.71 491.412V478.512C1358.51 474.412 1361.71 470.912 1365.81 470.712C1366.01 470.712 1366.31 470.712 1366.51 470.712H1395.91L1401.91 402.612C1401.71 399.012 1404.41 395.912 1408.01 395.712C1408.31 395.712 1408.51 395.712 1408.81 395.712H1423.51C1427.11 395.512 1430.21 398.212 1430.41 401.812C1430.41 402.112 1430.41 402.312 1430.41 402.612V470.712H1486.11C1490.21 470.512 1493.71 473.712 1493.91 477.812C1493.91 478.012 1493.91 478.312 1493.91 478.512V491.412C1494.11 495.512 1490.91 499.012 1486.81 499.212C1486.61 499.212 1486.31 499.212 1486.11 499.212H1430.41V571.412C1430.41 592.112 1431.81 630.712 1478.31 630.712C1483.81 630.712 1488.91 628.412 1494.41 628.412C1497.61 628.312 1500.41 630.712 1500.81 633.912L1504.51 647.212C1504.91 648.512 1505.01 649.912 1505.01 651.312C1504.51 660.012 1480.21 660.512 1470.01 660.512C1410.71 660.712 1396.91 620.212 1396.91 559.512ZM1162.71 568.212C1162.71 499.712 1206.41 467.912 1269.41 467.912C1285.41 467.612 1301.41 469.612 1316.81 473.912C1321.41 475.312 1324.21 477.612 1324.21 481.312V649.312C1324.41 653.412 1321.21 656.912 1317.11 657.112C1316.91 657.112 1316.61 657.112 1316.41 657.112H1302.61C1299.81 657.312 1297.11 655.812 1295.71 653.412L1288.81 643.712C1273.21 659.312 1245.11 659.312 1238.71 659.312C1191.21 659.312 1162.71 629.012 1162.71 568.212ZM1195.41 570.912C1195.41 622.412 1222.11 630.712 1248.81 630.712C1264.91 629.412 1280.11 622.412 1291.61 611.012V496.512C1215.11 496.512 1195.41 522.712 1195.41 570.912ZM741.706 561.812C741.706 505.212 770.706 467.912 832.306 467.912C893.906 467.912 922.906 505.212 922.906 561.812C922.906 622.512 893.906 659.312 832.306 659.312C770.706 659.312 741.806 622.512 741.706 561.812ZM774.406 562.212C774.406 589.812 779.906 630.812 832.406 630.812C884.806 630.812 890.406 589.912 890.406 562.212C890.406 533.712 879.406 496.412 832.406 496.412C785.406 496.412 774.406 533.712 774.406 562.212ZM545.306 647.812C540.706 646.412 537.906 644.112 537.906 640.512V403.512C537.706 399.412 540.906 395.912 545.006 395.712C545.206 395.712 545.506 395.712 545.706 395.712H562.706C566.806 395.512 570.306 398.712 570.506 402.812C570.506 403.012 570.506 403.312 570.506 403.512V480.312C587.706 471.912 606.606 467.712 625.706 467.912C670.806 467.912 707.106 499.612 707.106 560.412C707.106 621.112 674.906 659.312 613.206 659.312C590.206 659.012 567.306 655.112 545.306 647.812ZM570.606 511.612V621.612C584.506 627.912 599.506 631.012 614.806 630.812C657.106 630.812 674.606 609.212 674.606 560.412C674.606 509.812 651.606 496.512 617.606 496.512C600.806 497.212 584.606 502.412 570.606 511.612ZM1101.11 657.012C1097.01 657.212 1093.51 654.012 1093.31 649.912C1093.31 649.712 1093.31 649.412 1093.31 649.212V573.312C1093.31 524.512 1088.71 496.512 1045.01 496.512C1039.01 496.512 1008.21 498.312 999.506 504.312V649.212C999.706 653.312 996.506 656.812 992.406 657.012C992.206 657.012 991.906 657.012 991.706 657.012H974.706C970.606 657.212 967.106 654.012 966.906 649.912C966.906 649.712 966.906 649.412 966.906 649.212V484.512C966.906 480.812 969.706 478.512 974.306 477.112C996.506 471.212 1019.41 468.112 1042.41 467.912C1104.01 467.912 1126.11 496.412 1126.11 555.812V649.212C1126.31 653.312 1123.11 656.812 1119.01 657.012C1118.81 657.012 1118.51 657.012 1118.31 657.012H1101.11Z" fill="#FF6645"/>
<path d="M1131.11 362.412C1129.71 362.612 1128.41 361.612 1128.31 360.312C1128.31 360.112 1128.31 359.812 1128.31 359.612V343.112C1128.11 341.712 1129.11 340.512 1130.41 340.312C1130.61 340.312 1130.91 340.312 1131.11 340.312H1165.21C1168.81 340.312 1172.31 339.912 1175.71 339.012C1178.81 338.212 1181.61 336.812 1184.11 334.712C1186.61 332.512 1188.51 329.612 1189.71 326.412C1191.21 322.112 1191.91 317.612 1191.71 313.112V305.712H1161.21C1153.61 305.812 1145.91 304.812 1138.61 302.712C1125.11 299.112 1114.51 288.712 1110.61 275.212C1107.91 266.312 1106.71 257.112 1106.91 247.912C1106.71 238.312 1108.21 228.712 1111.31 219.612C1113.81 212.212 1117.91 205.412 1123.31 199.712C1128.21 194.612 1134.21 190.612 1140.81 188.112C1147.51 185.512 1154.71 184.212 1161.91 184.312C1176.51 183.512 1190.91 188.812 1201.41 199.012C1210.91 208.812 1215.61 224.612 1215.61 246.412V283.712H1316.61C1320.41 284.012 1324.11 282.912 1327.01 280.412C1329.61 277.012 1330.71 272.812 1330.31 268.612V192.312C1330.11 190.912 1331.11 189.712 1332.41 189.512C1332.61 189.512 1332.91 189.512 1333.11 189.512H1351.31C1352.71 189.312 1353.91 190.312 1354.11 191.612C1354.11 191.812 1354.11 192.112 1354.11 192.312V270.012C1354.91 279.712 1352.21 289.312 1346.41 297.212C1339.51 303.712 1330.21 306.812 1320.81 305.912H1215.51V312.712C1215.71 320.412 1214.51 328.112 1211.91 335.512C1209.81 341.312 1206.41 346.612 1201.91 350.912C1197.51 355.012 1192.21 358.012 1186.41 359.712C1179.91 361.712 1173.01 362.612 1166.21 362.512L1131.11 362.412ZM1139.21 217.912C1133.21 226.812 1130.31 237.412 1130.81 248.112C1129.71 258.112 1132.61 268.112 1138.91 276.012C1145.61 281.612 1154.21 284.312 1162.91 283.712H1191.71V246.412C1192.31 236.212 1189.91 226.012 1184.71 217.112C1179.51 209.812 1170.81 205.812 1161.81 206.612C1152.91 206.312 1144.31 210.512 1139.21 217.912ZM1335.11 357.912C1328.51 357.912 1323.11 352.512 1323.11 345.912V343.412C1323.11 336.812 1328.51 331.412 1335.11 331.412H1336.11C1342.71 331.412 1348.11 336.812 1348.11 343.412V345.912C1348.11 352.512 1342.71 357.912 1336.11 357.912H1335.11ZM1021.51 305.812C1021.11 305.812 1020.81 305.812 1020.51 305.812C1020.21 305.812 1019.91 305.812 1019.51 305.812H939.507C930.107 306.712 920.807 303.612 913.907 297.112C908.107 289.312 905.407 279.612 906.207 269.912V115.212C906.007 113.812 907.007 112.612 908.307 112.412C908.507 112.412 908.807 112.412 909.007 112.412H927.307C928.707 112.212 929.907 113.212 930.107 114.512C930.107 114.712 930.107 115.012 930.107 115.212V268.612C929.607 272.812 930.807 277.012 933.407 280.412C936.307 282.812 940.007 284.012 943.807 283.712H1019.51C1019.91 283.712 1020.21 283.712 1020.51 283.812C1020.81 283.912 1021.11 283.712 1021.51 283.712H1039.41C1043.21 284.012 1046.91 282.912 1049.81 280.412C1052.41 277.012 1053.51 272.812 1053.11 268.612V192.312C1052.91 190.912 1053.91 189.712 1055.21 189.512C1055.41 189.512 1055.71 189.512 1055.91 189.512H1074.11C1075.51 189.312 1076.71 190.312 1076.91 191.612C1076.91 191.812 1076.91 192.112 1076.91 192.312V270.012C1077.71 279.712 1075.01 289.312 1069.21 297.212C1062.31 303.712 1053.01 306.812 1043.61 305.912L1021.51 305.812ZM699.407 305.812C690.007 306.712 680.707 303.612 673.807 297.112C668.007 289.312 665.306 279.612 666.106 269.912V210.412C665.906 209.012 666.907 207.712 668.207 207.612C668.407 207.612 668.707 207.612 668.907 207.612H687.106C688.506 207.412 689.807 208.412 689.907 209.712C689.907 209.912 689.907 210.212 689.907 210.412V268.412C689.407 272.612 690.607 276.812 693.207 280.212C696.107 282.612 699.806 283.812 703.606 283.512H832.207C836.107 283.912 839.907 282.712 842.907 280.212C845.507 276.812 846.607 272.612 846.207 268.412V192.112C846.007 190.712 847.007 189.512 848.307 189.312C848.507 189.312 848.807 189.312 849.007 189.312H867.207C868.607 189.112 869.807 190.112 870.007 191.412C870.007 191.612 870.007 191.912 870.007 192.112V269.812C870.807 279.512 868.107 289.112 862.307 297.012C855.207 303.512 845.706 306.712 836.106 305.712L699.407 305.812ZM785.407 178.112C778.807 178.112 773.407 172.712 773.407 166.112V163.612C773.407 157.012 778.807 151.612 785.407 151.612H786.407C793.007 151.612 798.407 157.012 798.407 163.612V166.112C798.407 172.712 793.107 178.112 786.407 178.112H785.407ZM750.707 178.112C744.107 178.112 738.707 172.812 738.707 166.112V163.612C738.707 157.012 744.107 151.612 750.707 151.612H751.707C758.307 151.612 763.707 157.012 763.707 163.612V166.112C763.707 172.712 758.307 178.112 751.707 178.112H750.707ZM1064.51 161.312C1057.91 161.312 1052.51 155.912 1052.51 149.312V146.812C1052.51 140.212 1057.91 134.812 1064.51 134.812H1065.51C1072.11 134.812 1077.51 140.212 1077.51 146.812V149.312C1077.51 155.912 1072.21 161.312 1065.61 161.412C1065.61 161.412 1065.61 161.412 1065.51 161.412H1064.51V161.312Z" fill="#FF6645"/>
</svg>
